<svg xmlns="http://www.w3.org/2000/svg" width="128" height="128" viewBox="0 0 128 128" fill="none">
  <defs>
    <linearGradient id="bgC" x1="0" y1="0" x2="128" y2="128" gradientUnits="userSpaceOnUse">
      <stop stop-color="#1D4ED8"></stop>
      <stop offset="1" stop-color="#F97316"></stop>
    </linearGradient>
    <linearGradient id="cardC" x1="22" y1="50" x2="106" y2="96" gradientUnits="userSpaceOnUse">
      <stop stop-color="rgba(255,255,255,0.94)"></stop>
      <stop offset="1" stop-color="rgba(255,255,255,0.80)"></stop>
    </linearGradient>
  </defs>

  <!-- Background -->
  <rect x="10" y="10" width="108" height="108" rx="28" fill="url(#bgC)"></rect>

  <!-- Credit card -->
  <rect x="22" y="54" width="84" height="46" rx="16" fill="url(#cardC)"></rect>
  <rect x="22" y="63" width="84" height="8" rx="4" fill="rgba(2,6,23,0.14)"></rect>
  <rect x="32" y="80" width="24" height="7" rx="3.5" fill="rgba(2,6,23,0.14)"></rect>
  <rect x="60" y="80" width="18" height="7" rx="3.5" fill="rgba(2,6,23,0.10)"></rect>

  <!-- Label pill -->
  <rect x="22" y="26" width="70" height="24" rx="12" fill="rgba(255,255,255,0.92)"></rect>
  <text x="38" y="43" text-anchor="middle" font-family="system-ui, -apple-system, Segoe UI, Roboto, Helvetica, Arial" font-size="16" font-weight="1000" fill="rgba(2,6,23,0.92)">0%</text>
  <text x="70" y="43" text-anchor="middle" font-family="system-ui, -apple-system, Segoe UI, Roboto, Helvetica, Arial" font-size="12" font-weight="900" fill="rgba(2,6,23,0.70)">APR</text>

  <!-- Tiny spark -->
  <path d="M104 32l4 8 8 4-8 4-4 8-4-8-8-4 8-4 4-8z" fill="rgba(255,255,255,0.35)"></path>
</svg>
